<?xml version="1.0" standalone="no"?>
<!DOCTYPE svg PUBLIC "-//W3C//DTD SVG 20010904//EN"
 "http://www.w3.org/TR/2001/REC-SVG-20010904/DTD/svg10.dtd">
<svg version="1.0" xmlns="http://www.w3.org/2000/svg"
 width="1300.000000pt" height="1392.000000pt" viewBox="0 0 1300.000000 1392.000000"
 preserveAspectRatio="xMidYMid meet">

<g transform="translate(0.000000,1392.000000) scale(0.100000,-0.100000)"
fill="#000000" stroke="none">
<path d="M7045 10818 c-11 -6 -42 -33 -70 -61 -145 -143 -525 -342 -879 -458
-82 -27 -151 -49 -153 -49 -2 0 14 35 35 78 35 69 71 167 85 230 12 54 -36
112 -92 112 -11 0 -58 -29 -104 -64 -364 -278 -719 -443 -1497 -696 -431 -140
-653 -232 -906 -374 l-81 -45 -64 92 c-90 129 -253 289 -357 351 -314 186
-713 163 -902 -52 -55 -62 -115 -185 -136 -278 -24 -110 -15 -298 19 -414 33
-110 75 -203 132 -291 44 -68 47 -71 78 -65 18 3 57 8 87 11 85 10 85 9 41 67
-122 164 -192 352 -193 524 -1 198 87 359 228 415 51 20 77 23 194 24 116 0
144 -3 202 -23 91 -32 209 -110 288 -192 61 -63 210 -260 210 -278 0 -4 -29
-30 -65 -56 -35 -26 -108 -86 -160 -133 -53 -47 -98 -83 -99 -82 -10 12 -28
139 -32 224 -4 76 -2 113 11 155 28 93 28 104 7 124 -47 42 -99 -7 -122 -114
-9 -40 -11 -102 -8 -185 l6 -123 -48 29 c-69 42 -154 75 -233 88 -77 13 -103
5 -113 -36 -9 -35 33 -73 80 -73 76 0 212 -66 324 -158 l43 -35 -28 -31 c-16
-17 -39 -43 -52 -58 l-23 -26 124 5 123 6 110 106 c107 104 290 251 313 251 6
0 26 13 44 28 40 35 178 117 297 177 198 99 366 162 851 321 535 174 903 334
1175 510 l30 19 -19 -30 c-11 -16 -37 -52 -60 -79 -52 -63 -56 -115 -13 -152
34 -29 60 -30 188 -4 288 59 771 252 998 400 35 22 65 39 67 38 10 -11 -101
-161 -158 -213 -36 -33 -70 -70 -77 -83 -17 -32 -5 -77 26 -102 23 -18 40 -20
177 -20 222 0 432 34 761 124 71 19 132 33 135 30 3 -3 -20 -30 -51 -58 -68
-63 -82 -88 -74 -126 11 -50 35 -61 185 -86 653 -108 1359 -457 1940 -959 l95
-82 135 -7 135 -7 -54 55 c-30 31 -53 57 -50 60 2 2 41 15 86 30 96 30 169 42
308 52 55 3 106 11 113 16 22 18 14 66 -14 85 -24 15 -39 15 -162 5 -76 -7
-152 -16 -171 -22 -19 -5 -36 -8 -38 -6 -7 7 94 200 126 239 45 58 48 77 17
104 -15 13 -32 23 -38 23 -28 0 -98 -95 -163 -219 -38 -74 -90 -156 -113 -183
l-44 -48 -61 52 c-34 28 -104 84 -154 125 -51 41 -93 77 -93 82 0 20 183 232
245 284 249 209 599 225 770 35 151 -167 149 -402 -4 -701 l-50 -97 52 0 c29
0 75 -3 103 -6 l50 -6 41 88 c76 165 109 314 100 458 -13 225 -135 417 -320
505 -113 54 -171 66 -312 64 -302 -3 -524 -131 -765 -442 -34 -45 -65 -81 -68
-81 -3 0 -13 6 -21 14 -50 42 -344 214 -516 301 -291 147 -567 251 -832 315
-71 17 -140 34 -155 38 l-27 7 34 55 c19 30 44 86 56 123 20 64 21 71 6 101
-8 19 -28 38 -45 45 -28 12 -56 6 -290 -58 -271 -75 -504 -125 -635 -136 l-77
-7 41 61 c56 85 105 208 125 318 21 116 14 157 -29 183 -36 23 -53 24 -82 8z"/>
<path d="M6450 10131 c-59 -25 -65 -30 -65 -57 0 -27 3 -29 35 -28 54 2 134
44 138 73 4 23 -12 42 -33 40 -5 -1 -39 -13 -75 -28z"/>
<path d="M6045 9994 c-102 -61 -272 -118 -389 -131 -77 -9 -101 -28 -76 -58
12 -15 27 -17 95 -12 100 7 220 44 352 109 104 51 127 74 103 103 -17 20 -38
17 -85 -11z"/>
<path d="M7261 9972 c-52 -20 -71 -44 -55 -69 13 -21 33 -21 89 0 48 18 64 40
49 65 -15 23 -31 24 -83 4z"/>
<path d="M6340 9920 c-14 -11 -48 -27 -77 -35 -51 -16 -67 -32 -57 -60 10 -25
40 -26 95 -5 106 39 141 74 107 108 -17 17 -39 14 -68 -8z"/>
<path d="M6829 9832 c-13 -11 -37 -25 -54 -33 -35 -16 -42 -40 -20 -62 18 -19
59 -10 105 23 31 22 39 57 18 78 -16 16 -21 15 -49 -6z"/>
<path d="M3421 8949 c-46 -5 -118 -15 -160 -22 -71 -13 -54 -14 294 -20 318
-5 456 -13 750 -42 45 -4 41 -2 -34 20 -166 48 -309 67 -546 70 -121 2 -258
-1 -304 -6z"/>
<path d="M9125 8929 c-55 -5 -120 -13 -145 -19 -36 -7 -21 -8 70 -5 63 3 210
8 325 12 169 6 195 9 135 14 -104 9 -266 8 -385 -2z"/>
<path d="M8898 8893 c6 -2 18 -2 25 0 6 3 1 5 -13 5 -14 0 -19 -2 -12 -5z"/>
<path d="M9300 8570 c-439 -24 -680 -55 -995 -129 -273 -65 -430 -117 -578
-193 -140 -73 -252 -222 -291 -388 -23 -97 -39 -320 -33 -450 16 -314 138
-852 251 -1105 8 -16 28 -64 46 -105 68 -158 187 -370 274 -490 61 -85 203
-245 254 -288 60 -51 200 -141 277 -180 103 -52 242 -90 515 -141 418 -79 931
-79 1240 -1 111 28 292 103 365 150 68 44 191 167 242 240 148 217 271 640
340 1175 26 201 26 962 0 1104 -26 142 -127 378 -191 449 -59 64 -175 126
-331 177 -106 35 -385 97 -515 115 -200 27 -329 40 -485 50 -94 5 -186 12
-205 14 -19 2 -100 0 -180 -4z"/>
<path d="M3510 8549 c-318 -19 -502 -38 -715 -75 -120 -20 -387 -87 -453 -113
-137 -54 -277 -179 -344 -306 -78 -149 -107 -283 -134 -615 -14 -174 -15 -230
-5 -370 48 -663 150 -1182 294 -1492 52 -113 159 -269 233 -338 157 -147 455
-235 883 -260 324 -20 664 20 1001 116 166 48 311 111 430 189 88 57 256 222
322 315 344 487 595 1210 622 1790 6 131 -12 377 -33 462 -59 230 -213 382
-505 498 -150 59 -516 139 -776 170 -315 36 -561 45 -820 29z"/>
<path d="M1506 6700 c12 -212 48 -394 121 -618 47 -146 68 -185 37 -71 -9 35
-50 226 -90 424 -65 319 -73 349 -68 265z"/>
<path d="M6330 6414 c-272 -41 -440 -126 -506 -257 -22 -42 -25 -61 -23 -123
l3 -74 -64 -53 c-266 -219 -389 -603 -270 -838 33 -63 116 -141 182 -169 32
-14 58 -27 58 -30 0 -3 -133 -63 -295 -135 l-294 -130 -3 -460 -3 -460 -205
-12 c-1169 -69 -2307 -235 -3009 -438 -68 -19 -126 -33 -129 -30 -7 7 15 936
28 1170 16 278 38 578 61 821 l21 220 -32 65 c-18 35 -50 108 -70 162 l-37 98
-12 -88 c-48 -367 -99 -1019 -120 -1518 -28 -693 -14 -2022 33 -3075 3 -63 8
-234 11 -380 10 -469 15 -617 21 -634 7 -20 55 -46 81 -46 10 1 35 7 55 14 32
12 38 12 38 0 0 -12 693 -14 4609 -14 2905 0 4619 4 4635 10 56 21 64 63 86
460 18 301 23 1313 11 1845 -6 270 -16 850 -21 1290 -5 440 -14 901 -20 1025
-12 276 -28 540 -36 600 l-6 45 -21 -30 c-12 -17 -48 -58 -80 -92 l-60 -62 13
-210 c19 -322 26 -663 29 -1309 1 -326 4 -599 7 -607 9 -22 -5 -19 -92 21
-303 139 -669 264 -1089 372 l-190 49 -94 97 c-77 78 -100 96 -124 96 -16 0
-103 -18 -192 -40 l-162 -40 -154 24 c-470 76 -991 128 -1569 158 -277 14
-1291 17 -1677 5 l-253 -8 0 394 0 394 273 121 272 120 16 -98 c36 -217 146
-350 325 -390 68 -16 262 -14 361 4 135 24 206 74 262 184 44 87 78 268 82
434 l2 76 111 4 c95 3 119 7 168 30 105 49 188 158 218 287 28 118 -9 291 -92
435 -60 104 -211 251 -305 296 l-72 35 0 52 c-2 94 -42 162 -133 223 -122 81
-399 137 -558 114z m698 -592 c110 -63 223 -202 267 -327 27 -77 32 -163 13
-227 -16 -53 -80 -124 -125 -139 -53 -17 -178 -6 -323 30 -293 73 -453 60
-780 -60 -134 -50 -152 -54 -230 -54 -116 1 -180 35 -223 120 -62 126 13 377
161 536 38 41 81 80 95 88 23 12 28 10 88 -39 210 -170 495 -215 713 -112 84
40 175 110 222 170 43 57 48 57 122 14z m-265 -823 l57 -13 0 -46 c0 -77 -20
-262 -36 -330 -32 -140 -73 -180 -195 -195 l-56 -6 5 78 c2 43 -5 173 -17 289
-12 117 -21 220 -21 229 0 16 9 17 103 12 56 -3 128 -11 160 -18z m-355 -201
c24 -215 28 -348 12 -377 -8 -16 -16 -17 -60 -10 -65 10 -134 43 -160 76 -10
13 -29 50 -41 81 -19 49 -22 78 -23 207 l-1 150 110 37 c61 20 117 37 125 38
13 0 20 -36 38 -202z m-458 42 c0 -13 -12 -25 -37 -35 -35 -15 -38 -14 -57 4
-20 20 -20 20 15 35 49 22 79 20 79 -4z m-365 -150 c10 -11 16 -22 14 -24 -2
-2 -37 -18 -78 -36 l-74 -32 -20 21 c-12 11 -19 22 -16 24 7 5 143 66 150 66
3 1 14 -8 24 -19z m-295 -390 l0 -70 -30 0 -30 0 0 70 0 70 30 0 30 0 0 -70z
m0 -360 l0 -70 -30 0 -30 0 0 70 0 70 30 0 30 0 0 -70z m-170 -395 c0 -13 -28
-15 -187 -15 -214 0 -482 -15 -561 -31 -46 -9 -53 -14 -50 -32 4 -26 31 -34
178 -47 160 -15 1061 -24 1080 -11 12 8 13 12 2 23 -9 9 -43 13 -100 13 l-87
0 -3 53 c-2 39 1 54 12 58 21 8 490 -14 670 -31 212 -21 376 -49 376 -65 0
-16 -152 -43 -365 -64 -502 -50 -1362 -45 -1835 10 -149 17 -270 41 -270 54 0
37 572 93 1018 98 102 2 122 0 122 -13z m0 -75 c0 -19 -6 -20 -202 -19 -202 1
-440 13 -383 19 58 5 331 16 458 18 121 2 127 1 127 -18z m4332 -117 c213
-223 308 -505 300 -889 l-2 -70 -202 -13 c-112 -7 -234 -16 -273 -21 -38 -5
-113 -14 -165 -20 -52 -6 -142 -18 -200 -26 -351 -50 -488 -64 -650 -64 -298
0 -476 55 -602 188 -103 107 -140 223 -103 319 74 194 484 394 1020 498 66 13
156 26 200 30 44 4 195 36 335 71 140 34 260 63 266 63 6 1 40 -29 76 -66z
m-5287 -12 c281 -39 438 -46 1060 -46 500 0 632 3 795 18 183 17 394 48 433
63 13 5 17 1 17 -20 0 -42 -55 -57 -310 -86 -291 -33 -585 -43 -1086 -37 -491
5 -738 20 -957 57 -136 23 -157 32 -157 65 0 22 2 23 32 14 18 -5 96 -18 173
-28z m130 -156 c270 -28 577 -38 1073 -32 482 6 607 12 855 43 71 8 131 14
133 12 11 -12 -106 -744 -217 -1351 -113 -619 -148 -791 -164 -803 -27 -20
-226 -82 -330 -103 -288 -58 -615 -49 -966 25 -130 27 -319 81 -333 94 -6 6
-76 512 -76 558 0 27 35 6 40 -23 4 -25 10 -31 38 -33 31 -3 32 -2 32 32 0 24
5 36 14 36 46 0 273 34 339 51 251 63 417 209 491 431 69 204 -5 405 -196 536
-146 100 -395 188 -678 239 -42 8 -45 11 -51 47 -8 49 -30 66 -85 66 -49 0
-69 -19 -60 -55 6 -22 3 -25 -19 -25 -29 0 -29 3 -45 140 -6 52 -13 106 -16
119 -5 23 -4 24 43 17 26 -4 107 -13 178 -21z m-719 -380 c129 -19 272 -35
318 -35 302 0 753 -93 961 -198 127 -63 223 -149 246 -220 19 -58 7 -142 -32
-218 -49 -98 -119 -164 -231 -218 -208 -100 -388 -115 -1058 -88 -233 9 -377
10 -510 3 -134 -7 -186 -7 -191 1 -17 27 -31 219 -26 333 13 242 81 439 214
615 24 33 51 60 59 60 8 0 120 -16 250 -35z m3518 -82 c191 -47 359 -209 424
-408 18 -53 19 -187 2 -255 -14 -58 -58 -154 -94 -203 -11 -17 -227 -223 -479
-458 -300 -281 -465 -429 -480 -430 -61 -3 -64 -2 -193 120 l-86 81 66 353
c65 345 158 865 171 960 4 26 12 47 17 47 5 0 37 24 69 54 158 143 368 193
583 139z m-2569 -1763 c316 -81 623 -113 882 -92 173 14 355 49 478 92 48 17
88 30 90 28 2 -2 0 -19 -4 -38 -6 -30 -13 -37 -64 -57 -170 -69 -400 -103
-685 -103 -213 0 -317 9 -486 41 -177 33 -386 106 -386 135 0 7 -3 20 -7 30
-5 14 -3 16 13 10 10 -4 87 -25 169 -46z"/>
<path d="M5825 3511 c-11 -19 1 -25 73 -37 l67 -10 -135 -8 c-135 -7 -159 -13
-145 -37 15 -23 399 5 432 32 37 31 -26 53 -188 65 -70 5 -98 3 -104 -5z"/>
<path d="M9265 3028 c-11 -7 -42 -15 -70 -18 -48 -5 -50 -6 -50 -35 0 -25 5
-31 33 -39 62 -18 157 31 150 77 -4 26 -34 32 -63 15z"/>
<path d="M8940 3008 c-14 -6 -65 -14 -115 -17 -89 -6 -90 -6 -93 -33 -3 -22 2
-30 23 -38 39 -15 114 -12 176 6 68 20 81 31 77 63 -3 30 -28 37 -68 19z"/>
<path d="M9001 2766 c-8 -9 -11 -26 -7 -41 5 -19 13 -25 34 -25 15 0 50 -3 78
-6 40 -5 54 -3 67 11 20 20 21 26 5 47 -19 25 -159 36 -177 14z"/>
<path d="M3720 2490 c-21 -13 -7 -54 24 -69 36 -17 174 -18 205 -2 16 9 21 20
19 39 l-3 27 -81 -3 c-44 -2 -96 0 -116 6 -19 5 -41 6 -48 2z"/>
<path d="M3417 2483 c-15 -14 -6 -53 16 -67 74 -49 174 -23 151 39 -6 14 -14
16 -46 11 -25 -4 -48 -1 -68 9 -32 17 -43 18 -53 8z"/>
<path d="M3638 2250 c-60 -10 -68 -16 -68 -46 0 -33 18 -38 97 -28 73 10 97
29 77 62 -13 20 -41 23 -106 12z"/>
<path d="M8820 4839 c359 -130 909 -174 1270 -103 77 16 282 75 277 80 -2 2
-50 -5 -108 -16 -180 -32 -382 -43 -674 -37 -287 6 -466 25 -690 72 -66 14
-122 25 -125 24 -3 0 20 -9 50 -20z"/>
<path d="M2983 4753 c9 -2 23 -2 30 0 6 3 -1 5 -18 5 -16 0 -22 -2 -12 -5z"/>
<path d="M3030 4747 c11 -12 331 -25 445 -18 117 8 115 8 -86 9 -113 1 -242 5
-285 8 -43 4 -77 4 -74 1z"/>
<path d="M3628 4743 c12 -2 30 -2 40 0 9 3 -1 5 -23 4 -22 0 -30 -2 -17 -4z"/>
</g>
</svg>
